<?xml version="1.0" encoding="UTF-8"?>
<svg fill="currentColor" stroke="#123456" id="Layer_1" data-name="Layer 1" xmlns="http://www.w3.org/2000/svg" viewBox="0 0 366.38 363.33">
  <g>
    <polygon points="137.83 69.48 272.69 271.7 206.81 271.7 69.66 69.48 137.83 69.48"/>
    <g>
      <line x1="3" y1="3" x2="338.24" y2="3" fill="none" stroke-linecap="round" stroke-miterlimit="10" stroke-width="6"/>
      <line x1="3" y1="338.24" x2="272.71" y2="338.24" fill="none" stroke="#800000" stroke-linecap="round" stroke-miterlimit="10" stroke-width="6"/>
      <line x1="3" y1="338.24" x2="3" y2="3" fill="none" stroke="#800000" stroke-linecap="round" stroke-miterlimit="10" stroke-width="6"/>
      <line x1="338.24" y1="3" x2="338.24" y2="272.71" fill="none" stroke="#800000" stroke-linecap="round" stroke-miterlimit="10" stroke-width="6"/>
      <path d="m363.38,321.67c0,21.35-17.31,38.66-38.67,38.66s-38.66-17.31-38.66-38.66,17.31-38.67,38.66-38.67,38.67,17.31,38.67,38.67Z" fill="none" stroke="#800000" stroke-linecap="round" stroke-miterlimit="10" stroke-width="6"/>
      <polyline points="69.66 69.48 137.83 69.48 137.86 69.48" fill="none" stroke="#800000" stroke-linecap="round" stroke-miterlimit="10" stroke-width="6"/>
      <line x1="206.81" y1="271.7" x2="272.69" y2="271.7" fill="none" stroke="#800000" stroke-linecap="round" stroke-miterlimit="10" stroke-width="6"/>
      <line x1="69.66" y1="69.48" x2="206.81" y2="271.7" fill="none" stroke="#800000" stroke-linecap="round" stroke-miterlimit="10" stroke-width="6"/>
      <line x1="137.83" y1="69.48" x2="272.69" y2="271.7" fill="none" stroke="#800000" stroke-linecap="round" stroke-miterlimit="10" stroke-width="6"/>
    </g>
  </g>
  <path d="m276.22,72.39h-62.79c-1.66,0-3-1.34-3-3s1.34-3,3-3h62.79c1.66,0,3,1.34,3,3s-1.34,3-3,3Z" fill="#800000"/>
  <path d="m123.98,275.62h-.05l-59.06-.91c-1.66-.03-2.98-1.39-2.95-3.05.03-1.64,1.36-2.95,3-2.95h.05l59.06.91c1.66.03,2.98,1.39,2.95,3.05-.03,1.64-1.36,2.95-3,2.95Z" fill="#800000"/>
  <path d="m181.23,112.83c-.64,0-1.29-.2-1.83-.63-1.31-1.01-1.55-2.9-.54-4.21l31.24-40.44c1.01-1.31,2.9-1.55,4.21-.54,1.31,1.01,1.55,2.9.54,4.21l-31.24,40.44c-.59.77-1.48,1.17-2.38,1.17Z" fill="#800000"/>
  <path d="m124.76,274.61c-.61,0-1.22-.18-1.75-.56-1.34-.97-1.65-2.84-.68-4.19l32.91-45.75c.97-1.34,2.84-1.65,4.19-.68,1.34.97,1.65,2.84.68,4.19l-32.91,45.75c-.59.81-1.51,1.25-2.44,1.25Z" fill="#800000"/>
  <path d="m213.36,158.93c-.61,0-1.23-.19-1.76-.57-1.34-.97-1.64-2.85-.67-4.19l62.86-86.54c.97-1.34,2.85-1.64,4.19-.66s1.64,2.85.67,4.19l-62.86,86.54c-.59.81-1.5,1.24-2.43,1.24Z" fill="#800000"/>
  <path d="m202.8,143.85c-.3,0-.6-.09-.87-.28-.68-.48-.84-1.41-.36-2.09l51.58-72.96c.48-.68,1.41-.84,2.09-.36.68.48.84,1.41.36,2.09l-51.58,72.96c-.29.41-.76.63-1.23.63Z" fill="#800000"/>
  <path d="m157.44,228.51c-.97,0-1.92-.47-2.5-1.33l-29.28-43.84c-.92-1.38-.55-3.24.83-4.16,1.38-.92,3.24-.55,4.16.83l29.28,43.84c.92,1.38.55,3.24-.83,4.16-.51.34-1.09.5-1.66.5Z" fill="#800000"/>
  <path d="m63.14,274.61c-.61,0-1.22-.18-1.75-.57-1.34-.97-1.64-2.85-.67-4.19l65.02-89.94c.97-1.34,2.85-1.65,4.19-.67,1.34.97,1.64,2.85.67,4.19l-65.02,89.94c-.59.81-1.5,1.24-2.43,1.24Z" fill="#800000"/>
  <path d="m212.86,158.93c-.95,0-1.89-.45-2.47-1.29l-31.72-45.73c-.94-1.36-.61-3.23.75-4.17,1.36-.95,3.23-.61,4.17.75l31.72,45.73c.94,1.36.61,3.23-.75,4.17-.52.36-1.12.54-1.71.54Z" fill="#800000"/>
  <path d="m325.19,343.71c-3.86,0-7.62-.94-10.85-2.85-6.89-4.08-9.84-11.69-8.31-21.41l.02-.12c1.5-9.62,9.74-19.88,19.65-19.88h.1c3.89.03,7.8,1.62,11.31,4.59,1.26,1.07,1.42,2.96.35,4.23-1.07,1.27-2.96,1.42-4.23.35-1.69-1.43-4.37-3.15-7.48-3.17h-.06c-6.73,0-12.62,7.79-13.71,14.81l-.02.13c-.79,5.04-.5,11.8,5.44,15.31,5.19,3.07,12.75,2.55,18.37-1.27,1.37-.93,3.24-.57,4.17.8s.58,3.24-.8,4.17c-4.21,2.86-9.16,4.32-13.95,4.32Z" fill="#800000"/>
  <path d="m319.9,339.65c-.83,0-1.5-.67-1.5-1.5v-32.58c0-.83.67-1.5,1.5-1.5s1.5.67,1.5,1.5v32.58c0,.83-.67,1.5-1.5,1.5Z" fill="#800000"/>
  <path d="m106.06,273.11c-.3,0-.6-.09-.86-.27-.68-.48-.84-1.41-.37-2.09l41.62-59.3c.48-.68,1.41-.84,2.09-.37.68.48.84,1.41.37,2.09l-41.62,59.3c-.29.42-.76.64-1.23.64Z" fill="#800000"/>
</svg>