<?xml version="1.0" encoding="UTF-8"?>
<!-- currentColor: -->
<!-- https://wendeehsu.medium.com/styling-svg-icon-in-react-js-bfd3d826901d -->
<svg fill="currentFill" stroke="currentColor" id="Layer_1" data-name="Layer 1" xmlns="http://www.w3.org/2000/svg" viewBox="0 0 235 235">
  <g>
    <polygon points="80 5 230 230 155 230 5 5 80 5"/>
    <g stroke="none">
      <line x1="5" y1="5" x2="155" y2="230" fill="none" stroke-linecap="round" stroke-miterlimit="10" stroke-width="10"/>
      <line x1="230" y1="230" x2="80" y2="5" fill="none" stroke-linecap="round" stroke-miterlimit="10" stroke-width="10"/>
      <line x1="5" y1="5" x2="80" y2="5" fill="none" stroke-linecap="round" stroke-miterlimit="10" stroke-width="10"/>
      <line x1="155" y1="230" x2="230" y2="230" fill="none" stroke-linecap="round" stroke-miterlimit="10" stroke-width="10"/>
    </g>
  </g>
  <line x1="230" y1="5" x2="155" y2="5" fill="none" stroke-linecap="round" stroke-miterlimit="10" stroke-width="10"/>
  <line x1="5" y1="230" x2="80" y2="230" fill="none" stroke-linecap="round" stroke-miterlimit="10" stroke-width="10"/>
  <line x1="80" y1="230" x2="105" y2="192.5" fill="none" stroke-linecap="round" stroke-miterlimit="10" stroke-width="10"/>
  <line x1="5" y1="230" x2="67.5" y2="142.5" fill="none" stroke-linecap="round" stroke-miterlimit="10" stroke-width="10"/>
  <line x1="105" y1="192.5" x2="67.5" y2="142.5" fill="none" stroke-linecap="round" stroke-miterlimit="10" stroke-width="10"/>
  <line x1="230" y1="5" x2="167.5" y2="92.5" fill="none" stroke-linecap="round" stroke-miterlimit="10" stroke-width="10"/>
  <line x1="155" y1="5" x2="130" y2="42.5" fill="none" stroke-linecap="round" stroke-miterlimit="10" stroke-width="10"/>
  <line x1="167.5" y1="92.5" x2="130" y2="42.5" fill="none" stroke-linecap="round" stroke-miterlimit="10" stroke-width="10"/>
  <line x1="192.5" y1="5" x2="155" y2="67.5" fill="none" stroke-linecap="round" stroke-miterlimit="10" stroke-width="5"/>
  <line x1="42.5" y1="230" x2="80" y2="167.5" fill="none" stroke-linecap="round" stroke-miterlimit="10" stroke-width="5"/>
</svg>